<svg width="32" height="32" viewBox="0 0 32 32" fill="none" xmlns="http://www.w3.org/2000/svg">
<g clip-path="url(#clip0_48_2)">
<path d="M16 0C7.163 0 0 7.164 0 16C0 24.837 7.163 32 16 32C24.836 32 32 24.837 32 16C32 7.164 24.836 0 16 0ZM16 30C8.28 30 1.969 23.72 1.969 16C1.969 8.28 8.28 2 16 2C23.72 2 30 8.28 30 16C30 23.72 23.72 30 16 30Z" fill="#FFC302"/>
<path d="M16.699 11.2932C16.315 10.9132 15.655 10.9122 15.27 11.2932L8.271 18.1922C7.877 18.5832 7.877 19.2162 8.271 19.6062C8.666 19.9972 9.305 19.9972 9.7 19.6062L15.985 13.4112L22.27 19.6072C22.664 19.9982 23.304 19.9982 23.699 19.6072C24.093 19.2162 24.093 18.5832 23.699 18.1932L16.699 11.2932Z" fill="#FFC302"/>
</g>
<defs>
<clipPath id="clip0_48_2">
<rect width="32" height="32" fill="white"/>
</clipPath>
</defs>
</svg>
